<svg width="20" height="26" viewBox="0 0 20 26" xmlns="http://www.w3.org/2000/svg"><title>Logo</title><path d="M10.03.372c1.25 2.16 2.734 3.764 4.28 5.434 1.026 1.11 2.087 2.257 3.134 3.634l.006.008.007.01a10.05 10.05 0 0 1 2.097 6.68 9.993 9.993 0 0 1-2.78 6.475c-1.802 1.862-4.196 2.888-6.744 2.888-2.547 0-4.94-1.025-6.742-2.887a10 10 0 0 1-2.782-6.477c-.117-2.427.628-4.8 2.097-6.68l.007-.01.006-.007c1.047-1.377 2.11-2.525 3.136-3.635C7.297 4.135 8.782 2.53 10.03.372z" fill="#bdbdbd" fill-rule="evenodd"/></svg>